<svg width="60" height="54" viewBox="0 0 60 54" fill="none" xmlns="http://www.w3.org/2000/svg">
<path d="M55.6236 5.73083C52.637 2.35782 48.5089 0.500397 44 0.500397C40.458 0.500397 37.1446 1.94169 34.418 4.66829C32.599 6.48739 31.098 8.80032 30.0001 11.4571C28.902 8.80032 27.4013 6.48751 25.5823 4.66829C22.8557 1.94169 19.5422 0.500397 16.0002 0.500397C11.4912 0.500397 7.36324 2.35794 4.3766 5.73094C1.59516 8.87169 0 13.1615 0 17.5003C0 22.7102 1.57641 27.8521 4.68527 32.7837C7.14727 36.6888 10.5712 40.4694 14.8624 44.0207C22.1334 50.038 29.2898 53.2779 29.5909 53.4128C29.8491 53.5286 30.1509 53.5286 30.409 53.4128C30.7102 53.2779 37.8664 50.038 45.1375 44.0207C49.4286 40.4694 52.8526 36.6888 55.3146 32.7837C58.4236 27.8521 60 22.7102 60 17.5003C60 13.1615 58.4048 8.87169 55.6236 5.73083Z" fill="#FF6647"/>
</svg>
