<svg width="60" height="60" viewBox="0 0 60 60" fill="none" xmlns="http://www.w3.org/2000/svg">
<g clip-path="url(#clip0_31_85)">
<path d="M58.1634 17.7551H1.83673V14.9917L28.119 0.857117H29.9954L58.1634 14.9917V17.7551Z" fill="#A9DDF3"/>
<path d="M47.7551 17.7551H1.83673V14.9917L28.119 0.857117H29.9954L47.7551 14.9917V17.7551Z" fill="#29ABE2"/>
<path d="M47.7551 17.7551H10.2856V14.9917L28.1189 0.857117H29.9953L47.7551 14.9917V17.7551Z" fill="#7FCDEE"/>
<path d="M58.1412 14.9915H1.85016V17.8059H58.1412V14.9915Z" fill="#E8EC7A"/>
<path d="M28.119 0.857117L21.5518 4.65305H36.5626L29.9954 0.857117H28.119Z" fill="#D9E021"/>
<path d="M46.882 14.9915H1.85016V17.8059H46.882V14.9915Z" fill="#D9E021"/>
<path d="M11.2322 14.9915H1.85016V17.8059H11.2322V14.9915Z" fill="#8E9307"/>
<path d="M28.0409 20.5715V27.3061H31.8367V20.5715" fill="#7FCDEE"/>
<path d="M32.8164 28.1633H27.1837V20.5715H29.0205V26.3266H30.9796V20.5715H32.8164V28.1633Z" fill="black"/>
<path d="M21.551 20.5715V27.1837H25.347V20.5715" fill="#D9E021"/>
<path d="M34.653 20.5715V27.1837H38.449V20.5715" fill="#D9E021"/>
<path d="M2.78815 59.0861V45.0134C7.96959 45.0134 12.1699 49.2137 12.1699 54.3952V59.0861" fill="#7FCDEE"/>
<path d="M6.54084 45.0135H2.78815V59.0865H6.54084V45.0135Z" fill="#29ABE2"/>
<path d="M2.81635 45.0134V45.4441C6.48982 46.6398 9.42853 50.1945 9.42853 54.395V59.1429H12.2449V54.3952C12.2449 49.2137 7.95912 45.0134 2.81635 45.0134Z" fill="#A9DDF3"/>
<path d="M2.78815 40.3225V20.6208H17.7989V26.2499C17.7989 33.5039 11.9185 39.3844 4.66444 39.3844" fill="#7FCDEE"/>
<path d="M3.70655 40.3225H1.86987V19.7024H18.7173V26.2499C18.7173 33.9986 12.4134 40.3028 4.66444 40.3028V38.4661C11.4004 38.4661 16.8805 32.9861 16.8805 26.25V21.5393H3.70655V40.3225Z" fill="black"/>
<path d="M6.54084 20.6204H2.78815V40.3225H6.54084V20.6204Z" fill="#29ABE2"/>
<path d="M14.0816 20.5715V26.2499C14.0816 32.8651 11.0229 38.4716 4.66034 39.3844C11.9142 39.3843 17.7551 33.5038 17.7551 26.2499V20.5715H14.0816Z" fill="#A9DDF3"/>
<path d="M57.2024 59.0861V45.0134C52.021 45.0134 47.8206 49.2137 47.8206 54.3952V59.0861" fill="#7FCDEE"/>
<path d="M57.2028 45.0135H53.4501V59.0865H57.2028V45.0135Z" fill="#29ABE2"/>
<path d="M57.1836 45.0134V45.4441C53.5101 46.6398 50.5714 50.1945 50.5714 54.395V59.1429H47.7551V54.3952C47.7551 49.2137 51.9184 45.0134 57.1836 45.0134Z" fill="#A9DDF3"/>
<path d="M57.2024 40.3225V20.6208H42.1916V26.2499C42.1916 33.5039 48.0721 39.3844 55.3261 39.3844" fill="#7FCDEE"/>
<path d="M58.1208 40.3225H56.284V21.5392H43.11V26.2499C43.11 32.9858 48.59 38.466 55.3261 38.466V40.3027C47.5774 40.3027 41.2732 33.9987 41.2732 26.2498V19.7023H58.1207V40.3225H58.1208Z" fill="black"/>
<path d="M57.2028 20.6204H53.4501V40.3225H57.2028V20.6204Z" fill="#29ABE2"/>
<path d="M45.9184 20.5715V26.2499C45.9184 32.8651 48.977 38.4716 55.3397 39.3844C48.0858 39.3843 42.2449 33.5038 42.2449 26.2499V20.5715H45.9184Z" fill="#A9DDF3"/>
<path d="M31.1807 36.0949L30.5173 36.7583L29.8539 36.0949C27.2892 33.5303 23.1311 33.5303 20.5664 36.0949C18.0018 38.6596 18.0018 42.8177 20.5664 45.3824L30.5173 55.3333L40.4681 45.3824C43.0328 42.8177 43.0328 38.6596 40.4681 36.0949C37.9035 33.5303 33.7453 33.5303 31.1807 36.0949Z" fill="#C1272D"/>
<path d="M40.4681 36.0949C39.6041 35.2309 38.558 34.6651 37.4541 34.3833C37.7835 34.6092 38.0989 34.864 38.3918 35.1567C40.9563 37.7214 40.9563 41.8796 38.3918 44.4442L29.9953 55.3333L40.4681 45.3823C43.0328 42.8178 43.0328 38.6596 40.4681 36.0949Z" fill="#FF1D25"/>
<path d="M21.1844 36.0949C22.0485 35.2309 23.0946 34.6651 24.1985 34.3833C23.8691 34.6092 23.5536 34.864 23.2608 35.1567C20.6961 37.7214 20.6961 41.8796 23.2608 44.4442L30.5662 55.3333L21.1844 45.3823C18.6197 42.8178 18.6197 38.6596 21.1844 36.0949Z" fill="#740C10"/>
<path d="M60 58.1633H0V60H60V58.1633Z" fill="black"/>
<path d="M13.0883 57.2097H11.2517V54.3952C11.2517 50.0386 7.94311 46.4404 3.70655 45.9813V57.2098H1.86987V44.095H2.78827C8.46776 44.095 13.0885 48.7156 13.0885 54.3952V57.2097H13.0883Z" fill="black"/>
<path d="M5.51016 41.2654H0V43.1021H5.51016V41.2654Z" fill="#D9E021"/>
<path d="M3.70655 40.3225H1.86987V19.7024H18.7173V26.2499C18.7173 33.9986 12.4134 40.3028 4.66444 40.3028V38.4661C11.4004 38.4661 16.8805 32.9861 16.8805 26.25V21.5393H3.70655V40.3225Z" fill="black"/>
<path d="M7.46931 23.5101H5.63263V36.4897H7.46931V23.5101Z" fill="black"/>
<path d="M7.46931 48.7346H5.63263V57.1836H7.46931V48.7346Z" fill="black"/>
<path d="M58.1208 57.2097H56.284V45.9812C52.0476 46.4402 48.7389 50.0386 48.7389 54.395V57.2095H46.9022V54.395C46.9022 48.7155 51.5228 44.0948 57.2024 44.0948H58.1208V57.2097Z" fill="black"/>
<path d="M60 41.2654H54.4899V43.1021H60V41.2654Z" fill="#D9E021"/>
<path d="M58.1208 40.3225H56.284V21.5392H43.11V26.2499C43.11 32.9858 48.59 38.466 55.3261 38.466V40.3027C47.5774 40.3027 41.2732 33.9987 41.2732 26.2498V19.7023H58.1207V40.3225H58.1208Z" fill="black"/>
<path d="M54.3673 23.5101H52.5306V36.4897H54.3673V23.5101Z" fill="black"/>
<path d="M54.3673 48.7346H52.5306V57.1836H54.3673V48.7346Z" fill="black"/>
<path d="M32.8163 14.0816H27.1837V15.9183H32.8163V14.0816Z" fill="black"/>
<path d="M30.2124 0H27.8881L0.979553 14.4422V18.7346H59.0204V14.4245L30.2124 0ZM28.3497 1.83668H29.7783L33.4465 3.67336H24.9276L28.3497 1.83668ZM57.1836 16.898H2.81635V15.9184H25.3469V14.0817H5.53557L21.551 5.4859V5.51027H37.1148L54.2333 14.0817H34.653V15.9184H57.1836V16.898Z" fill="black"/>
<path d="M40.4081 19.7144H19.5919V21.551H20.5714V28.1632H26.3265V21.551H27.1836V28.1632H32.8162V21.551H33.6733V28.1632H39.4284V21.551H40.408V19.7144H40.4081ZM24.4898 26.3265H22.4082V21.551H24.4898V26.3265ZM30.9795 26.3265H29.0204V21.551H30.9795V26.3265ZM37.5918 26.3265H35.5101V21.551H37.5917V26.3265H37.5918Z" fill="black"/>
<path d="M30.5174 56.632L19.9171 46.0317C18.5033 44.6179 17.7246 42.738 17.7246 40.7386C17.7246 38.7391 18.5033 36.8593 19.9171 35.4454C21.3308 34.0317 23.2107 33.253 25.2102 33.253C27.2096 33.253 29.0895 34.0317 30.5033 35.4454L30.5173 35.4594L30.5313 35.4454C31.9451 34.0317 33.825 33.253 35.8245 33.253C37.8239 33.253 39.7037 34.0317 41.1176 35.4454C42.5313 36.8592 43.31 38.7391 43.31 40.7386C43.31 42.738 42.5313 44.6178 41.1176 46.0317L30.5174 56.632ZM25.2102 35.0924C23.7636 35.0924 22.3171 35.643 21.2157 36.7442C19.0132 38.9468 19.0132 42.5305 21.2157 44.7329L30.5173 54.0344L39.8188 44.7329C40.8857 43.666 41.4734 42.2475 41.4734 40.7385C41.4734 39.2297 40.8859 37.8111 39.8188 36.744C38.7519 35.6771 37.3334 35.0894 35.8243 35.0894C34.3155 35.0894 32.897 35.6769 31.8299 36.744L30.5171 38.0567L29.2044 36.7441C28.1033 35.643 26.6566 35.0924 25.2102 35.0924Z" fill="black"/>
</g>
<defs>
<clipPath id="clip0_31_85">
<rect width="60" height="60" fill="white"/>
</clipPath>
</defs>
</svg>
