<svg width="60" height="60" viewBox="0 0 60 60" fill="none" xmlns="http://www.w3.org/2000/svg">
<path d="M50 22.2727H10V42.0707H50V22.2727Z" fill="#D15975"/>
<path d="M43.3334 22.2727H16.6667V42.0707H43.3334V22.2727Z" fill="#F36E81"/>
<path d="M53.3334 25.3168C53.3334 27.1851 51.8045 28.772 49.9364 28.7368C48.1249 28.7029 46.6667 27.2237 46.6667 25.4041C46.6667 27.2451 45.1744 28.7374 43.3334 28.7374C41.4923 28.7374 40 27.2451 40 25.4041C40 27.2451 38.5077 28.7374 36.6667 28.7374C34.8257 28.7374 33.3334 27.2451 33.3334 25.4041C33.3334 27.2451 31.841 28.7374 30 28.7374C28.159 28.7374 26.6667 27.2451 26.6667 25.4041C26.6667 27.2451 25.1744 28.7374 23.3334 28.7374C21.4923 28.7374 20 27.2451 20 25.4041C20 27.2451 18.5077 28.7374 16.6667 28.7374C14.8257 28.7374 13.3334 27.2451 13.3334 25.4041C13.3334 27.2237 11.8752 28.7029 10.0637 28.7368C8.19558 28.7718 6.66669 27.1851 6.66669 25.3168V21.953C6.66669 20.1772 8.10628 18.7376 9.88224 18.7376H50.118C51.8938 18.7376 53.3336 20.1772 53.3336 21.953V25.3168H53.3334Z" fill="#EDB7AB"/>
<g opacity="0.6">
<path opacity="0.6" d="M49.9364 25.4035C48.1249 25.3695 46.6667 23.8903 46.6667 22.0707C46.6667 23.9117 45.1744 25.4041 43.3334 25.4041C41.4923 25.4041 40 23.9117 40 22.0707C40 23.9117 38.5077 25.4041 36.6667 25.4041C34.8257 25.4041 33.3334 23.9117 33.3334 22.0707C33.3334 23.9117 31.841 25.4041 30 25.4041C28.159 25.4041 26.6667 23.9117 26.6667 22.0707C26.6667 23.9117 25.1744 25.4041 23.3334 25.4041C21.4923 25.4041 20 23.9117 20 22.0707C20 23.9117 18.5077 25.4041 16.6667 25.4041C14.8257 25.4041 13.3334 23.9117 13.3334 22.0707C13.3334 23.8903 11.8752 25.3695 10.0637 25.4035C8.19558 25.4384 6.66669 23.8517 6.66669 21.9835V25.3168C6.66669 27.1851 8.19558 28.7719 10.0637 28.7368C11.8752 28.7029 13.3334 27.2237 13.3334 25.4041C13.3334 27.2451 14.8257 28.7374 16.6667 28.7374C18.5077 28.7374 20 27.2451 20 25.4041C20 27.2451 21.4923 28.7374 23.3334 28.7374C25.1744 28.7374 26.6667 27.2451 26.6667 25.4041C26.6667 27.2451 28.159 28.7374 30 28.7374C31.841 28.7374 33.3334 27.2451 33.3334 25.4041C33.3334 27.2451 34.8257 28.7374 36.6667 28.7374C38.5077 28.7374 40 27.2451 40 25.4041C40 27.2451 41.4923 28.7374 43.3334 28.7374C45.1744 28.7374 46.6667 27.2451 46.6667 25.4041C46.6667 27.2237 48.1249 28.7029 49.9364 28.7368C51.8045 28.7717 53.3334 27.1851 53.3334 25.3168V21.9835C53.3334 23.8517 51.8045 25.4384 49.9364 25.4035Z" fill="#BDC3C7"/>
</g>
<path d="M13.3334 38.7374C14.2538 38.7374 15 37.9912 15 37.0707C15 36.1502 14.2538 35.4041 13.3334 35.4041C12.4129 35.4041 11.6667 36.1502 11.6667 37.0707C11.6667 37.9912 12.4129 38.7374 13.3334 38.7374Z" fill="#ECF0F1"/>
<path d="M20 38.7374C20.9205 38.7374 21.6667 37.9912 21.6667 37.0707C21.6667 36.1502 20.9205 35.4041 20 35.4041C19.0796 35.4041 18.3334 36.1502 18.3334 37.0707C18.3334 37.9912 19.0796 38.7374 20 38.7374Z" fill="#ECF0F1"/>
<path d="M26.6667 38.7374C27.5871 38.7374 28.3333 37.9912 28.3333 37.0707C28.3333 36.1502 27.5871 35.4041 26.6667 35.4041C25.7462 35.4041 25 36.1502 25 37.0707C25 37.9912 25.7462 38.7374 26.6667 38.7374Z" fill="#ECF0F1"/>
<path d="M33.3334 38.7374C34.2538 38.7374 35 37.9912 35 37.0707C35 36.1502 34.2538 35.4041 33.3334 35.4041C32.4129 35.4041 31.6667 36.1502 31.6667 37.0707C31.6667 37.9912 32.4129 38.7374 33.3334 38.7374Z" fill="#ECF0F1"/>
<path d="M40 38.7374C40.9205 38.7374 41.6667 37.9912 41.6667 37.0707C41.6667 36.1502 40.9205 35.4041 40 35.4041C39.0796 35.4041 38.3334 36.1502 38.3334 37.0707C38.3334 37.9912 39.0796 38.7374 40 38.7374Z" fill="#ECF0F1"/>
<path d="M46.6667 38.7374C47.5871 38.7374 48.3333 37.9912 48.3333 37.0707C48.3333 36.1502 47.5871 35.4041 46.6667 35.4041C45.7462 35.4041 45 36.1502 45 37.0707C45 37.9912 45.7462 38.7374 46.6667 38.7374Z" fill="#ECF0F1"/>
<path d="M24.8485 10.404C24.8485 11.3244 25.5948 12.0707 26.5152 12.0707H28.1818V18.7374H31.5152V9.94949C31.5152 9.27999 30.9726 8.73737 30.3031 8.73737H26.5152C25.5948 8.73737 24.8485 9.48363 24.8485 10.404Z" fill="#DA768E"/>
<g opacity="0.6">
<path opacity="0.6" d="M30.3031 8.73737H28.7879C29.4574 8.73737 30 9.27999 30 9.94949V18.7374H31.5152V9.94949C31.5152 9.27999 30.9725 8.73737 30.3031 8.73737Z" fill="#BDC3C7"/>
</g>
<path d="M26.9697 6.24587C26.9697 4.86971 29.596 1.26263 29.596 1.26263C29.596 1.26263 32.2222 4.86971 32.2222 6.24587C32.2222 7.62203 31.0465 8.73738 29.596 8.73738C28.1455 8.73738 26.9697 7.62183 26.9697 6.24587Z" fill="#F5DB91"/>
<g opacity="0.6">
<path opacity="0.6" d="M29.596 1.26263C29.596 1.26263 29.2922 1.68021 28.8914 2.28465C29.3402 3.45819 30 5.33758 30 6.24587C30 7.38991 29.5305 8.35152 28.8914 8.64405C29.1158 8.70324 29.3516 8.73738 29.596 8.73738C31.0465 8.73738 32.2223 7.62183 32.2223 6.24587C32.2223 4.86971 29.596 1.26263 29.596 1.26263Z" fill="#BDC3C7"/>
</g>
<path d="M3.33331 55.4041H56.6666V45.6398C56.6666 43.6687 55.0687 42.0707 53.0976 42.0707H6.9024C4.93129 42.0707 3.33331 43.6687 3.33331 45.6398V55.4041Z" fill="#C63C22"/>
<path d="M3.33331 55.4041H56.6666V45.6398C56.6666 43.6687 55.0687 42.0707 53.0976 42.0707H6.9024C4.93129 42.0707 3.33331 43.6687 3.33331 45.6398V55.4041Z" fill="#F492A6"/>
<path d="M9.76422 55.4041H50V45.6398C50 43.6687 48.402 42.0707 46.4309 42.0707H13.3333C11.3622 42.0707 9.76422 43.6687 9.76422 45.6398V55.4041Z" fill="#EDB7AB"/>
<path d="M1.66667 58.7374H58.3333C59.2537 58.7374 60 57.9911 60 57.0707C60 56.1503 59.2537 55.4041 58.3333 55.4041H1.66667C0.746263 55.4041 0 56.1503 0 57.0707C0 57.9911 0.746263 58.7374 1.66667 58.7374Z" fill="#5B5869"/>
<path d="M8.33335 52.0707C9.25383 52.0707 10 51.3246 10 50.4041C10 49.4836 9.25383 48.7374 8.33335 48.7374C7.41288 48.7374 6.66669 49.4836 6.66669 50.4041C6.66669 51.3246 7.41288 52.0707 8.33335 52.0707Z" fill="#ECF0F1"/>
<path d="M17 52.0707C17.9205 52.0707 18.6666 51.3246 18.6666 50.4041C18.6666 49.4836 17.9205 48.7374 17 48.7374C16.0795 48.7374 15.3333 49.4836 15.3333 50.4041C15.3333 51.3246 16.0795 52.0707 17 52.0707Z" fill="#ECF0F1"/>
<path d="M25.6667 52.0707C26.5872 52.0707 27.3334 51.3246 27.3334 50.4041C27.3334 49.4836 26.5872 48.7374 25.6667 48.7374C24.7463 48.7374 24.0001 49.4836 24.0001 50.4041C24.0001 51.3246 24.7463 52.0707 25.6667 52.0707Z" fill="#ECF0F1"/>
<path d="M34.3334 52.0707C35.2538 52.0707 36 51.3246 36 50.4041C36 49.4836 35.2538 48.7374 34.3334 48.7374C33.4129 48.7374 32.6667 49.4836 32.6667 50.4041C32.6667 51.3246 33.4129 52.0707 34.3334 52.0707Z" fill="#ECF0F1"/>
<path d="M43 52.0707C43.9205 52.0707 44.6667 51.3246 44.6667 50.4041C44.6667 49.4836 43.9205 48.7374 43 48.7374C42.0796 48.7374 41.3334 49.4836 41.3334 50.4041C41.3334 51.3246 42.0796 52.0707 43 52.0707Z" fill="#ECF0F1"/>
<path d="M51.6667 52.0707C52.5871 52.0707 53.3333 51.3246 53.3333 50.4041C53.3333 49.4836 52.5871 48.7374 51.6667 48.7374C50.7462 48.7374 50 49.4836 50 50.4041C50 51.3246 50.7462 52.0707 51.6667 52.0707Z" fill="#ECF0F1"/>
</svg>
