<svg width="62" height="60" viewBox="0 0 62 60" fill="none" xmlns="http://www.w3.org/2000/svg">
<path d="M31.944 36.845H34.8706V38.7863H31.944V45.4421H29.9615V38.7863H27.1294V36.845H29.9615V34.1642H31.944V36.845ZM0.484375 14.4664H61.5156V16.3636C61.4427 19.7213 59.3093 22.4369 56.1875 23.3725V55.2569H61.5156V59.5257H0.484375V55.2569H5.8125V23.3777C2.81543 22.3641 0.484375 19.6074 0.484375 16.3636V14.4664ZM10.1719 23.382V55.2569H51.8281V23.3597C48.6245 22.4732 46.269 19.6297 46.269 16.2085C46.269 18.6863 43.9367 23.6663 38.6732 23.6663C32.8479 23.6663 31.053 18.8296 31.053 16.2085C31.053 19.02 28.7491 23.6718 23.4963 23.6718C17.4486 23.6718 15.8124 17.7448 15.8124 16.2085C15.8124 19.6589 13.4177 22.5216 10.1719 23.382ZM53.9671 5.21739H54.0078V0.474304H8.23438V5.21739L0.484375 12.8063H61.5156L53.9671 5.21739ZM44.0781 49.5652V53.834H17.9219V49.5652H19.6172V37.2332C19.6172 31.0871 24.7235 26.087 31 26.087C37.2765 26.087 42.3828 31.0871 42.3828 37.2332V49.5652H44.0781ZM22.0391 49.5652H39.9609V37.2332C39.9609 32.3948 35.9411 28.4585 31 28.4585C26.0589 28.4585 22.0391 32.3948 22.0391 37.2332V49.5652Z" fill="#A23A61"/>
</svg>
