<svg width="60" height="60" viewBox="0 0 60 60" fill="none" xmlns="http://www.w3.org/2000/svg">
<path d="M47.8679 15.5603V42.3602H47.8461C47.6194 46.1523 39.7262 49.199 29.9997 49.199C20.2732 49.199 12.3806 46.1523 12.1533 42.3602H12.1327V15.5603H47.8679Z" fill="#242C56"/>
<path d="M30.0003 0.312012L60 18.2173L30.0003 36.1226L0 18.2173L30.0003 0.312012Z" fill="#61688D"/>
<path d="M28.5726 16.0554C28.5697 15.8282 28.6251 15.6041 28.7337 15.4045C28.8422 15.2049 29.0002 15.0365 29.1924 14.9154C29.3847 14.7943 29.6048 14.7246 29.8318 14.713C30.0587 14.7014 30.2848 14.7483 30.4884 14.8491L52.9193 20.0889C53.5713 20.2518 54.1511 20.6257 54.5686 21.1524C54.986 21.679 55.2178 22.3288 55.2277 23.0008V54.1055H52.5855V23.0031C52.5746 22.9287 52.5425 22.859 52.493 22.8024C52.4486 22.7431 52.389 22.697 52.3205 22.6687L29.5364 17.346L29.5411 17.3242C29.264 17.2462 29.0197 17.0803 28.845 16.8515C28.6703 16.6227 28.5748 16.3433 28.5726 16.0554Z" fill="#242C56"/>
<path d="M50.9276 54.417C50.9276 57.33 52.2816 59.6909 53.9478 59.6909C55.6139 59.6909 56.9668 57.33 56.9668 54.417C56.9668 51.5039 55.6127 49.1442 53.9478 49.1442C52.2828 49.1442 50.9276 51.5057 50.9276 54.417Z" fill="url(#paint0_linear_31_19)"/>
<defs>
<linearGradient id="paint0_linear_31_19" x1="-178.969" y1="51.8125" x2="-174.661" y2="57.2784" gradientUnits="userSpaceOnUse">
<stop stop-color="#F9BE00"/>
<stop offset="1" stop-color="#F8A72B"/>
</linearGradient>
</defs>
</svg>
