<svg width="35" height="35" viewBox="0 0 35 35" fill="none" xmlns="http://www.w3.org/2000/svg">
<path d="M18.6685 6.17552V0L6.31757 6.17552H5.42487V6.62184V33.8315V35H29.5751V6.17552H18.6685ZM16.3315 3.7815V6.17545H11.5436L16.3315 3.7815ZM27.238 32.6629H7.762V8.51266H27.238V32.6629Z" fill="white"/>
<path d="M21.3283 12.7696L17.5 8.94128L13.6717 12.7696L10.8782 9.97611V18.2506C10.8782 21.5031 13.2359 24.2134 16.3315 24.7671V30.7152H18.6686V24.7671C21.7642 24.2134 24.1219 21.503 24.1219 18.2506V9.97618L21.3283 12.7696ZM17.5 12.2465L19.6758 14.4222L17.5 16.598L15.3242 14.4222L17.5 12.2465ZM21.7847 18.2506C21.7847 20.6132 19.8626 22.5353 17.5 22.5353C15.1374 22.5353 13.2153 20.6132 13.2153 18.2506V15.6185L17.5 19.9032L21.7847 15.6185V18.2506Z" fill="white"/>
</svg>
